# xmcd
#
# Track frame offsets:
#	187
#	25080
#	40407
#	58562
#	70737
#	94565
#	112382
#	128747
#
# Disc length: 2570 seconds
#
# Revision: 2
# Processed by: cddbd v1.4PL0 Copyright (c) Steve Scherf et al.
# Submitted via: audiograbber 1.81.01
#
DISCID=690a0808
DTITLE=John Mayall - A Banquet In Blues
DYEAR=1976
DGENRE=Blues
TTITLE0=Sunshine
TTITLE1=You Can't Put Me Down
TTITLE2=I Got Somebody
TTITLE3=Turn Me Loose
TTITLE4=Seven Days Too Long
TTITLE5=Table Top Girl
TTITLE6=Lady
TTITLE7=Fantasyland
EXTD=
EXTT0=
EXTT1=
EXTT2=
EXTT3=
EXTT4=
EXTT5=
EXTT6=
EXTT7=
PLAYORDER=
